<?xml version="1.0" encoding="UTF-8"?>
<svg id="Layer_2" data-name="Layer 2" xmlns="http://www.w3.org/2000/svg" xmlns:xlink="http://www.w3.org/1999/xlink" viewBox="0 0 1200 1200">
  <defs>
    <clipPath id="clippath">
      <path d="M210.8,557.22c-.48-.12-1.05-.22-1.38-.3-8.99-2.08-15.81-9.51-17.1-18.66-.17-1.19-.23-2.35-.22-3.55,0-.14,0-.29,0-.44-.43-.19-.91-.36-1.2-.47-15.06-5.59-30.67-8.24-46.72-7.74h-.16s-.16,0-.16,0c-16.05-.5-31.66,2.15-46.72,7.74-.29.11-.77.28-1.2.47,0,.16,0,.31,0,.44,0,1.2-.05,2.36-.22,3.55-1.29,9.14-8.11,16.57-17.1,18.66-.34.08-.9.18-1.38.3.69,46.51,14.78,88.78,56.08,113.84,6.53,3.97,14.8,4,21.34.04,41.34-25.04,55.44-67.34,56.14-113.87" clip-rule="evenodd" fill="none"/>
    </clipPath>
    <linearGradient id="linear-gradient" x1="100.76" y1="533.36" x2="181.33" y2="658.06" gradientUnits="userSpaceOnUse">
      <stop offset="0" stop-color="#67896b"/>
      <stop offset="1" stop-color="#7a9e7e"/>
    </linearGradient>
  </defs>
  <g id="Layer_3" data-name="Layer 3">
    <rect width="1200" height="1200" fill="#fff"/>
    <g>
      <g>
        <path d="M282.64,628.16c-6.7,0-12.03-2.55-16-7.65-3.97-5.1-5.96-11.93-5.96-20.5,0-4.91.7-9.42,2.1-13.55s3.83-7.61,7.3-10.45c3.47-2.84,7.73-4.26,12.79-4.26,4.91,0,8.98,1.27,12.21,3.8,3.23,2.53,5.32,6.09,6.25,10.69h17.87c-.7-8.64-4.4-15.77-11.1-21.38-6.7-5.61-14.99-8.41-24.88-8.41-12.38,0-22.29,4.13-29.73,12.38-7.44,8.25-11.15,18.61-11.15,31.07,0,13.16,3.68,23.73,11.04,31.71,7.36,7.98,17.07,11.97,29.15,11.97,11.14,0,19.9-3.08,26.28-9.23,6.39-6.15,10.05-14.45,10.98-24.88h-18.11c-1.56,12.46-7.9,18.69-19.04,18.69Z" fill="#5c7d60"/>
        <path d="M359.97,579.56c-9.42,0-17.02,2.92-22.78,8.76-5.76,5.84-8.64,13.55-8.64,23.13,0,9.66,2.84,17.4,8.53,23.24,5.69,5.84,13.24,8.76,22.66,8.76,9.42,0,16.96-2.92,22.6-8.76,5.65-5.84,8.47-13.59,8.47-23.25,0-9.58-2.82-17.29-8.47-23.13-5.65-5.84-13.1-8.76-22.37-8.76ZM370.42,625.76c-2.53,3.47-6.09,5.2-10.69,5.2-4.59,0-8.18-1.71-10.75-5.14-2.57-3.43-3.86-8.22-3.86-14.37,0-6,1.28-10.71,3.85-14.13,2.57-3.43,6.07-5.14,10.51-5.14,4.59,0,8.2,1.69,10.81,5.08,2.61,3.39,3.91,8.08,3.91,14.08,0,6.15-1.26,10.96-3.8,14.43Z" fill="#5c7d60"/>
        <path d="M458.63,565.13c-5.49-4.48-12.91-6.72-22.25-6.72h-35.86s0,83.17,0,83.17h18.11s0-29.9,0-29.9h18.69c8.8,0,15.93-2.24,21.38-6.72,5.45-4.48,8.18-11.08,8.18-19.8,0-8.88-2.75-15.56-8.24-20.03ZM434.86,597.31h-16.24s0-23.95,0-23.95h16.35c9.42,0,14.13,4.01,14.13,12.03,0,7.94-4.75,11.91-14.25,11.92Z" fill="#5c7d60"/>
        <path d="M530.52,599.18c0-13.08-8.76-19.62-26.28-19.62-17.68,0-26.98,6.78-27.92,20.33h15.54c.54-3.43,1.71-5.82,3.5-7.18,1.79-1.36,4.59-2.04,8.41-2.04,7.24,0,10.86,2.69,10.86,8.06,0,2.34-.99,3.93-2.98,4.79-1.99.86-5.9,1.67-11.74,2.45-2.65.31-4.71.6-6.19.88-1.48.27-3.43.68-5.84,1.23-2.41.55-4.3,1.25-5.67,2.1-1.36.86-2.8,1.95-4.32,3.27-1.52,1.32-2.61,2.96-3.27,4.91-.66,1.95-.99,4.21-.99,6.77,0,5.68,1.91,10.14,5.72,13.37,3.82,3.23,9.07,4.85,15.77,4.85,7.94,0,14.45-2.53,19.51-7.59.23,2.34.62,4.28,1.17,5.84h16.82c-1.4-3.27-2.1-8.72-2.1-16.35v-26.05ZM510.49,628.91c-2.69,2.38-6.25,3.56-10.69,3.56-2.88,0-5.12-.72-6.72-2.16-1.6-1.44-2.39-3.41-2.39-5.9,0-2.57.86-4.59,2.57-6.07,1.48-1.17,4.67-2.14,9.58-2.92,5.84-.93,9.73-1.99,11.68-3.15v6.78c0,4.21-1.34,7.5-4.03,9.87Z" fill="#5c7d60"/>
        <path d="M579.11,579.9c-9.03,0-15.54,4.17-19.51,12.5v-11.1s-15.77,0-15.77,0v60.27s16.59,0,16.59,0v-27.57c0-5.84,1.28-10.49,3.85-13.96,2.57-3.47,6.58-5.2,12.03-5.2,1.95,0,4.09.23,6.42.7v-15.3c-1.64-.23-2.84-.35-3.62-.35Z" fill="#5c7d60"/>
        <path d="M614.74,579.56c-8.8,0-16.04,3.04-21.73,9.11-5.68,6.07-8.53,13.78-8.53,23.13s2.82,17.13,8.47,22.89c5.65,5.76,13.1,8.64,22.37,8.64,6.93,0,12.91-1.79,17.93-5.37,5.02-3.58,8.47-8.61,10.34-15.07h-15.89c-2.34,5.84-6.42,8.76-12.27,8.76-4.44,0-7.88-1.36-10.34-4.09-2.45-2.73-3.72-6.7-3.8-11.91h43.22v-1.64c0-10.59-2.69-18.98-8.06-25.17-5.37-6.19-12.62-9.29-21.73-9.29ZM601.31,605.14c.47-4.21,1.91-7.51,4.32-9.93,2.41-2.41,5.45-3.62,9.11-3.62,3.89,0,6.93,1.27,9.11,3.8,2.18,2.53,3.47,5.78,3.85,9.75h-26.4Z" fill="#5c7d60"/>
        <path d="M689.85,579.68c-8.33,0-14.99,3.35-19.97,10.05v-8.41h-15.77v60.27h16.47v-32.36c0-10.59,4.36-15.89,13.08-15.89,4.05,0,6.77,1.11,8.18,3.33,1.4,2.22,2.1,5.47,2.1,9.75v35.16h16.82v-40.3c0-6.93-1.87-12.27-5.61-16-3.74-3.74-8.84-5.61-15.3-5.61Z" fill="#5c7d60"/>
        <path d="M756.43,592.52v-11.21h-12.27v-18.22h-16.47v18.22h-10.05v11.21h10.05v31.31c0,7.24,1.3,12.13,3.91,14.66,2.61,2.53,7.53,3.8,14.78,3.8,2.65,0,6-.16,10.05-.47v-12.62c-1.32.16-3,.23-5.02.23-1.79,0-3.17-.14-4.15-.41s-1.69-.84-2.16-1.69c-.47-.86-.74-1.69-.82-2.51s-.12-2.12-.12-3.91v-28.38h12.27Z" fill="#5c7d60"/>
        <path d="M857.41,601.52c-4.01-3.5-10.1-6.42-18.28-8.76-1.87-.54-4.05-1.13-6.54-1.75s-4.42-1.13-5.78-1.52c-1.36-.39-2.88-.84-4.56-1.34-1.67-.51-2.94-.97-3.8-1.4-.86-.43-1.71-.97-2.57-1.64-.86-.66-1.44-1.38-1.75-2.16-.31-.78-.47-1.67-.47-2.69,0-2.96,1.19-5.28,3.56-6.95,2.38-1.67,5.67-2.51,9.87-2.51,9.81,0,15.07,4.13,15.77,12.38h17.29c-.16-8.88-3.19-15.52-9.11-19.92-5.92-4.4-13.55-6.6-22.89-6.6s-17.41,2.26-23.25,6.78c-5.84,4.52-8.76,10.55-8.76,18.11,0,2.34.29,4.5.88,6.48.58,1.99,1.23,3.66,1.93,5.02.7,1.36,1.85,2.67,3.45,3.91,1.6,1.25,2.94,2.22,4.03,2.92,1.09.7,2.82,1.48,5.2,2.34,2.37.86,4.11,1.46,5.2,1.81,1.09.35,3.04.92,5.84,1.69.31.08.66.18,1.05.29.39.12.7.21.93.29s.58.16,1.05.23c8.1,2.34,13.41,4.17,15.94,5.49,2.53,1.32,3.8,3.43,3.8,6.31,0,3.43-1.38,6.13-4.15,8.12-2.76,1.99-6.52,2.98-11.27,2.98-12.23,0-18.5-5.22-18.81-15.65h-18.11c.08,9.42,3.29,16.72,9.64,21.9,6.35,5.18,15.17,7.77,26.46,7.77,4.44,0,8.62-.49,12.56-1.46,3.93-.97,7.55-2.49,10.86-4.56,3.31-2.06,5.94-4.87,7.88-8.41s2.92-7.69,2.92-12.44c0-6.54-2.01-11.56-6.02-15.07Z" fill="#5c7d60"/>
        <path d="M908.17,579.79c-7.94,0-14.29,3.19-19.04,9.58v-30.96h-16.35v83.17h16.35v-30.72c0-5.3.91-9.54,2.74-12.73,1.83-3.19,5.24-4.79,10.22-4.79,4.13,0,6.93,1.09,8.41,3.27,1.48,2.18,2.22,5.33,2.22,9.46v35.51h16.59v-39.48c0-14.87-7.05-22.31-21.14-22.31Z" fill="#5c7d60"/>
        <rect x="942.39" y="558.42" width="16.59" height="14.02" fill="#5c7d60"/>
        <rect x="942.39" y="581.31" width="16.59" height="60.27" fill="#5c7d60"/>
        <path d="M999.86,579.56c-8.8,0-16.04,3.04-21.73,9.11-5.68,6.07-8.53,13.78-8.53,23.13s2.82,17.13,8.47,22.89,13.1,8.64,22.37,8.64c6.93,0,12.91-1.79,17.93-5.37,5.02-3.58,8.47-8.61,10.34-15.07h-15.89c-2.34,5.84-6.42,8.76-12.27,8.76-4.44,0-7.88-1.36-10.34-4.09-2.45-2.73-3.72-6.7-3.8-11.91h43.22v-1.64c0-10.59-2.69-18.98-8.06-25.17s-12.62-9.29-21.73-9.29ZM986.43,605.14c.47-4.21,1.91-7.51,4.32-9.93s5.45-3.62,9.11-3.62c3.89,0,6.93,1.27,9.11,3.8,2.18,2.53,3.47,5.78,3.85,9.75h-26.4Z" fill="#5c7d60"/>
        <rect x="1039.57" y="558.42" width="16.59" height="83.17" fill="#5c7d60"/>
        <path d="M1111.53,558.42v30.37c-1.87-2.96-4.46-5.22-7.77-6.78-3.31-1.56-6.83-2.34-10.57-2.34-8.02,0-14.43,2.88-19.22,8.64-4.79,5.76-7.18,13.39-7.18,22.9s2.47,17.5,7.42,23.3c4.95,5.8,11.58,8.7,19.92,8.7s14.25-3.12,18.22-9.34v7.71h15.65v-83.17h-16.47ZM1108.38,625.06c-2.49,3.23-6.04,4.85-10.63,4.85s-7.92-1.65-10.45-4.96c-2.53-3.31-3.8-7.88-3.8-13.73s1.25-10.28,3.74-13.55c2.49-3.27,6-4.91,10.51-4.91s8.04,1.64,10.57,4.91c2.53,3.27,3.8,7.83,3.8,13.67s-1.25,10.49-3.74,13.73Z" fill="#5c7d60"/>
      </g>
      <g>
        <path d="M130.6,675.53c8.24,4.92,18.51,4.93,26.77.04,38.47-23.4,58.03-63.12,58.67-119.14-.43-3.73-2.68-3.97-5.44-4.61-6.86-1.59-12.1-7.26-13.1-14.29-.73-5.15,1.53-6.3-4.77-8.64-15.86-5.89-32.1-8.58-48.7-8.06-16.61-.51-32.84,2.17-48.7,8.06-6.3,2.34-4.04,3.49-4.77,8.64-1,7.03-6.24,12.7-13.1,14.29-2.76.64-5.01.88-5.44,4.61.64,55.99,20.17,95.69,58.6,119.1,0,0,0,0,0,0" fill="#7a9e7e" fill-rule="evenodd"/>
        <g clip-path="url(#clippath)">
          <rect x="77.24" y="525.57" width="133.55" height="149.49" fill="url(#linear-gradient)"/>
        </g>
        <path d="M109.47,618.65c-2.5-6.07,3.26-8.28,2.9-10.88-.9-6.49-.06-20.8,5.45-25.13.36-.28,1.06-.63,1.32-.89.4-.51.13-1.49-.3-1.92-4.85-4.98-5.35-11.46-1.16-17.05,3.91-5.21,11.9-6.32,16.78-1.84,3.11,2.85,6.53,7.46,5.24,11.93-1.03,3.57-1.65,1.67-.64,5.44l.06.22v.23c-.06.7-.27.95-.69,1.42-.04.06-.07.19-.08.26-.41,1.61-.61,2.21-1.91,3.15-.15.39-.21,1.16-.34,1.64l-.19.7-.67.27c-.58.23-1.11.33-1.62.37,6.21,5.78,5.51,13.92,5.67,22.19.04,1.94,0,3.91-.24,5.84-.1.81-.3,1.63-.4,2.43-.1.84,1.59,3.1,2.02,3.76.36.55.89,1.77,1.33,2.17,1.34,1.23,3.16,2.39,5.03,3.03-.14-1.79.43-3.42,1.29-5.31,1.62-3.53,2.89-6.27,3.76-10.15.34-1.53.72-3.05,1.14-4.56.3-1.08,1.43-3.11,1.54-3.94.27-3.83-2.42-3.06-2.86-5.28-.17-.89-.03-1.69.64-2.32-2.42-.21-6.2-.67-6.81-3.1-.36-1.43.41-2.59-.23-4.09l-.26-.62.3-.6c.18-.36.37-.69.65-.95.03-.12.06-.25.09-.35.17-.71.27-1.09.49-1.52-.92-1.62-1.31-3.25.61-4.52,1.17-.78,1.62-1.06,1.84-2.6.28-1.99.62-3.09,1.82-4.7,3.82-5.15,12.03-6.25,17.78-4.15,8.54,3.11,9.91,11.27,7.13,19.23l-.02.05-.02.05c-.94,2.19-1.93,3.7-3.76,5.27-.04.03-.07.06-.11.09.49.19.87.59,1.2,1.11.46.72.4,1.54.69,2.1.41.75,1.75,1.85,2.36,2.6,1.67,2.06,3.09,4.29,4.62,6.46,2.19,3.11,4.46,6.14,6.4,9.42l.42.72-.41.72c-9.5,16.61-27.12,26.88-46.31,26.88-11.02,0-21.68-3.36-30.69-9.71l-.63-.45.03-.78c.07-2.04.19-4.08.26-6.12.04-1.19-.12-.81-.79-1.18l-.74-.41v-2.9l.26-.37c.25-.36.54-.88.76-1.36" fill="#7a9e7e" fill-rule="evenodd"/>
        <path d="M109.88,620.83v1.6c.19.11,1.59.18,1.52,2.48-.08,2.62-.19,4.25-.26,6.12,8.44,5.95,18.74,9.45,29.86,9.45,19.29,0,36.13-10.53,45.07-26.16-1.93-3.27-3.84-5.77-6.34-9.33-1.52-2.17-2.89-4.34-4.56-6.38-.71-.87-2.03-1.95-2.51-2.82-.31-.56-.39-1.61-.65-2.02-.66-1.03-.6-.26-2.15-.47-.39-2.11-.14-1.32,1.34-2.58,1.92-1.64,2.69-3.14,3.37-4.75,6.82-19.54-16.07-22.31-22.41-13.75-.97,1.31-1.27,2.1-1.55,4.05-.68,4.88-5.15,2.38-2.17,6.93-.51.72-.51.71-.79,1.85-.39,1.59-.22.38-.85,1.61,1.63,3.82-3.08,5.51,6.76,6.4l.7,1.6c-.45.86-1.2.63-.97,1.8.21,1.1,3.18,1.28,2.88,5.65-.06.86-1.23,2.94-1.59,4.22-.42,1.49-.79,2.99-1.12,4.49-2.24,9.99-6.53,12.14-4.51,17.04-2.97-.31-5.99-2.1-7.93-3.87-.66-.6-.97-1.53-1.56-2.44-4.02-6.18-1.41-2.1-1.61-12.78-.18-9.44.57-17.39-7.14-22.7-.95-.65-.62-.23-.96-1.02,2.16-.23,3.31.45,4.95-.2.11-.42.24-1.57.46-1.95.57-.99,1.08-.07,1.78-2.82.28-1.11.68-.84.72-1.42-1.17-4.37-.37-2.65.65-6.2,1.13-3.92-2.28-8.15-4.83-10.48-4.25-3.89-11.25-2.9-14.67,1.65-3.84,5.12-3.26,10.77,1.04,15.19.84.86,1.32,2.63.39,3.82-.29.37-1.04.72-1.55,1.12-4.92,3.86-5.77,17.64-4.92,23.81.51,3.71-5.56,5.27-2.75,11.07-.26.66-.8,1.69-1.15,2.2" fill="#fff" fill-rule="evenodd"/>
        <path d="M196.06,613.58c6.36-18.99,9.44-34.09,9.23-45.29.03-1.99-2.53-2.5-3.35-.87,1.15,7.38-1.17,22.94-6.98,46.67-.72,2.93-1.49,5.99-2.31,9.17,1.22-3.33,2.36-6.56,3.41-9.68" fill="#7a9e7e" fill-rule="evenodd"/>
        <path d="M91.62,618.91c1.8,3.77,3.95,7.61,6.44,11.52,6.56,10.3,15.51,21.07,26.85,32.32-9.17-10.01-17.17-20.96-23.86-32.66-1.79-3.14-3.49-6.32-5.09-9.56-.8-1.96-2.79-2.51-4.34-1.62" fill="#7a9e7e" fill-rule="evenodd"/>
      </g>
    </g>
  </g>
</svg>