<?xml version="1.0" encoding="UTF-8"?>
<svg id="Layer_2" data-name="Layer 2" xmlns="http://www.w3.org/2000/svg" xmlns:xlink="http://www.w3.org/1999/xlink" viewBox="0 0 512 511.65">
  <defs>
    <clipPath id="clippath">
      <path d="M421.16,166.51c-1.12-.28-2.43-.52-3.21-.7-20.93-4.84-36.78-22.13-39.79-43.41-.39-2.76-.53-5.48-.52-8.26,0-.32.01-.67.02-1.03-1-.44-2.11-.85-2.79-1.1-35.04-13.01-71.36-19.16-108.71-18.01h-.38s-.38,0-.38,0c-37.35-1.16-73.67,5-108.71,18.01-.68.25-1.79.66-2.79,1.1.01.36.02.71.02,1.03.01,2.78-.13,5.5-.52,8.26-3.01,21.28-18.86,38.56-39.79,43.41-.78.18-2.09.42-3.21.7,1.61,108.22,34.4,206.56,130.47,264.86,15.2,9.23,34.43,9.3,49.66.08,96.19-58.25,128.99-156.68,130.61-264.95" clip-rule="evenodd" fill="none"/>
    </clipPath>
    <linearGradient id="linear-gradient" x1="165.19" y1="110.98" x2="352.59" y2="401.16" gradientUnits="userSpaceOnUse">
      <stop offset="0" stop-color="#67896b"/>
      <stop offset="1" stop-color="#7a9e7e"/>
    </linearGradient>
  </defs>
  <g id="Layer_3" data-name="Layer 3">
    <g id="Layer_1" data-name="Layer 1">
      <g>
        <rect width="512" height="511.65" fill="#faf7f2"/>
        <path d="M502.78,168.36C404.82,406.97,167.85,268.12,9.5,428v74.15c122.99,0,245.99.27,368.99.27,2.73,0,5.44-.1,8.12-.27h115.89c0-111.25.28-222.31.28-333.79" fill="#fdfbf9" fill-rule="evenodd"/>
        <path d="M234.59,441.79c19.18,11.44,43.07,11.47,62.28.09,89.51-54.45,135.02-146.86,136.5-277.2-1-8.67-6.25-9.23-12.67-10.72-15.96-3.69-28.16-16.89-30.48-33.25-1.69-11.98,3.56-14.66-11.1-20.1-36.91-13.7-74.68-19.96-113.32-18.76-38.64-1.2-76.41,5.06-113.32,18.76-14.66,5.44-9.41,8.13-11.1,20.1-2.31,16.36-14.52,29.56-30.48,33.25-6.42,1.49-11.67,2.05-12.67,10.72,1.49,130.27,46.94,222.64,136.35,277.11,0,0,0,0,0,0" fill="#7a9e7e" fill-rule="evenodd"/>
        <g clip-path="url(#clippath)">
          <rect x="110.43" y="92.85" width="310.74" height="347.83" fill="url(#linear-gradient)"/>
        </g>
        <path d="M185.41,309.43c-5.83-14.11,7.58-19.26,6.74-25.32-2.09-15.1-.14-48.4,12.68-58.48.84-.66,2.46-1.48,3.07-2.07.94-1.2.3-3.46-.69-4.48-11.28-11.58-12.45-26.66-2.7-39.67,9.09-12.12,27.68-14.7,39.04-4.29,7.24,6.63,15.19,17.37,12.2,27.77-2.39,8.31-3.84,3.88-1.5,12.66l.14.52-.03.54c-.1,1.63-.59,2.2-1.57,3.31-.09.14-.16.44-.2.6-.95,3.75-1.42,5.15-4.44,7.34-.36.9-.49,2.71-.78,3.81l-.43,1.63-1.56.62c-1.35.53-2.59.77-3.77.85,14.46,13.46,12.83,32.39,13.19,51.63.09,4.5.01,9.11-.55,13.58-.24,1.89-.71,3.79-.92,5.64-.22,1.95,3.69,7.21,4.69,8.74.83,1.28,2.08,4.12,3.09,5.04,3.13,2.86,7.36,5.56,11.7,7.05-.33-4.17.99-7.95,3.01-12.36,3.77-8.22,6.72-14.58,8.74-23.6.8-3.56,1.67-7.1,2.66-10.62.7-2.51,3.33-7.24,3.58-9.17.62-8.92-5.64-7.11-6.65-12.28-.4-2.07-.07-3.93,1.49-5.4-5.64-.49-14.42-1.56-15.85-7.2-.84-3.32.96-6.02-.53-9.51l-.61-1.43.71-1.39c.43-.84.87-1.6,1.51-2.22.07-.28.14-.57.2-.82.41-1.65.63-2.54,1.15-3.53-2.14-3.76-3.04-7.55,1.41-10.52,2.72-1.82,3.77-2.46,4.27-6.04.65-4.63,1.44-7.19,4.22-10.94,8.88-11.99,27.99-14.55,41.38-9.67,19.87,7.25,23.06,26.23,16.59,44.75l-.04.11-.04.11c-2.18,5.09-4.48,8.62-8.75,12.27-.09.07-.17.15-.26.21,1.15.43,2.02,1.37,2.78,2.57,1.07,1.67.92,3.59,1.62,4.88.96,1.75,4.06,4.3,5.5,6.06,3.9,4.79,7.2,9.99,10.74,15.04,5.09,7.25,10.37,14.28,14.88,21.92l.99,1.67-.96,1.68c-22.11,38.65-63.1,62.55-107.76,62.55-25.64,0-50.44-7.82-71.39-22.6l-1.47-1.04.06-1.8c.17-4.75.45-9.48.6-14.23.08-2.76-.28-1.89-1.83-2.75l-1.72-.95v-6.74l.61-.86c.58-.83,1.25-2.05,1.77-3.17" fill="#7a9e7e" fill-rule="evenodd"/>
        <path d="M186.37,314.51v3.72c.44.25,3.7.41,3.54,5.77-.19,6.09-.44,9.9-.6,14.25,19.65,13.85,43.61,21.99,69.47,21.99,44.9,0,84.06-24.51,104.87-60.87-4.5-7.61-8.93-13.42-14.74-21.7-3.54-5.05-6.73-10.09-10.6-14.85-1.65-2.03-4.72-4.53-5.83-6.56-.71-1.3-.9-3.74-1.5-4.69-1.54-2.41-1.39-.61-5-1.1-.91-4.91-.32-3.07,3.11-6.01,4.47-3.83,6.25-7.31,7.85-11.05,15.87-45.47-37.39-51.92-52.15-32-2.26,3.05-2.96,4.88-3.6,9.42-1.59,11.35-11.99,5.54-5.05,16.12-1.19,1.67-1.19,1.66-1.84,4.3-.91,3.69-.52.89-1.98,3.75,3.78,8.89-7.18,12.83,15.72,14.88l1.64,3.72c-1.06,2-2.79,1.47-2.26,4.19.5,2.56,7.4,2.98,6.7,13.16-.14,1.99-2.85,6.84-3.69,9.83-.97,3.47-1.83,6.96-2.62,10.45-5.22,23.25-15.18,28.23-10.5,39.66-6.91-.72-13.94-4.88-18.45-9.01-1.53-1.4-2.26-3.57-3.63-5.68-9.36-14.39-3.28-4.89-3.75-29.72-.42-21.96,1.33-40.47-16.6-52.83-2.21-1.52-1.44-.53-2.23-2.37,5.03-.54,7.7,1.05,11.52-.46.26-.99.57-3.66,1.08-4.55,1.33-2.3,2.51-.17,4.13-6.56.65-2.58,1.59-1.96,1.67-3.29-2.71-10.18-.86-6.17,1.52-14.44,2.62-9.12-5.3-18.95-11.25-24.39-9.89-9.05-26.18-6.76-34.13,3.83-8.94,11.91-7.58,25.07,2.42,35.34,1.95,2,3.08,6.11.9,8.9-.67.86-2.42,1.67-3.6,2.6-11.44,8.99-13.43,41.03-11.44,55.4,1.2,8.64-12.93,12.26-6.4,25.75-.6,1.53-1.86,3.94-2.68,5.11" fill="#fff" fill-rule="evenodd"/>
        <path d="M386.89,297.65c14.81-44.2,21.97-79.32,21.48-105.38.06-4.64-5.9-5.83-7.79-2.02,2.68,17.18-2.73,53.37-16.24,108.59-1.67,6.82-3.46,13.93-5.38,21.33,2.85-7.76,5.49-15.27,7.92-22.53" fill="#7a9e7e" fill-rule="evenodd"/>
        <path d="M143.87,310.04c4.19,8.77,9.19,17.71,14.99,26.8,15.27,23.96,36.1,49.03,62.48,75.19-21.33-23.28-39.94-48.77-55.51-75.98-4.17-7.29-8.12-14.71-11.85-22.24-1.86-4.55-6.5-5.84-10.1-3.77" fill="#7a9e7e" fill-rule="evenodd"/>
      </g>
    </g>
  </g>
</svg>
